<svg width="179" height="40" viewBox="0 0 179 40" fill="none" xmlns="http://www.w3.org/2000/svg">
<path d="M71.6873 4.16113V40L73.6724 38.5387V4.16113H71.6873Z" fill="#662D91"/>
<path d="M13.6926 14.4543H6.20115V18.4324H13.0117V23.7009H6.20115V33.092H0V9.18435H13.6926V14.4543Z" fill="url(#paint0_linear_3450:62444)"/>
<path d="M32.565 22.081L28.7998 27.096L36.596 37.6873H44.1232L32.565 22.081Z" fill="url(#paint1_linear_3450:62444)"/>
<path d="M39.105 9.18435H31.4706L14.8756 33.0935H22.367L39.105 9.18435Z" fill="url(#paint2_linear_3450:62444)"/>
<path d="M26.0156 12.9697L17.9863 0H10.3161L22.2474 17.8542C22.2831 17.8091 26.0156 12.9697 26.0156 12.9697Z" fill="url(#paint3_linear_3450:62444)"/>
<path d="M42.8702 33.0935V9.18435H49.0713L60.5051 23.8081V9.18435H66.7063V33.092H60.5051L49.0713 18.4682V33.092H42.8702V33.0935Z" fill="url(#paint4_linear_3450:62444)"/>
<path d="M82.4696 27.6177C81.526 27.0985 80.7845 26.3772 80.2481 25.4553C79.7103 24.5335 79.4429 23.5028 79.4429 22.3602C79.4429 21.2176 79.7118 20.1869 80.2481 19.2651C80.7845 18.3432 81.5291 17.6234 82.4789 17.1027C83.4288 16.5834 84.4921 16.3223 85.6673 16.3223C86.5488 16.3223 87.3634 16.4699 88.1096 16.7638C88.8558 17.0576 89.4885 17.4882 90.0092 18.0525L89.2117 18.85C88.2852 17.911 87.1146 17.4416 85.7015 17.4416C84.7626 17.4416 83.9091 17.6561 83.1412 18.0867C82.3717 18.5173 81.7701 19.1049 81.3348 19.8511C80.8995 20.5973 80.6819 21.4337 80.6819 22.3617C80.6819 23.2883 80.8995 24.1262 81.3348 24.8724C81.7701 25.6186 82.3717 26.2062 83.1412 26.6368C83.9107 27.0674 84.7641 27.2819 85.7015 27.2819C87.1271 27.2819 88.2961 26.8062 89.2117 25.858L90.0092 26.6554C89.4885 27.2213 88.8526 27.6535 88.1018 27.9535C87.3494 28.2535 86.5332 28.4028 85.6502 28.4028C84.4734 28.3981 83.4132 28.1385 82.4696 27.6177Z" fill="#8D9098"/>
<path d="M104.41 25.1237H97.7951L96.3695 28.295H95.0637L100.491 16.4229H101.728L107.155 28.295H105.832L104.41 25.1237ZM103.951 24.1071L101.102 17.7302L98.2521 24.1071H103.951Z" fill="#8D9098"/>
<path d="M121.709 17.5099C122.568 18.2343 122.997 19.2292 122.997 20.4947C122.997 21.7616 122.567 22.7534 121.709 23.4716C120.849 24.1899 119.661 24.549 118.147 24.549H114.959V28.297H113.704V16.4248H118.147C119.663 16.4233 120.849 16.7855 121.709 17.5099ZM120.81 22.6742C121.432 22.1596 121.743 21.4336 121.743 20.4947C121.743 19.5339 121.432 18.7955 120.81 18.281C120.188 17.7664 119.29 17.5099 118.113 17.5099H114.959V23.4468H118.113C119.29 23.4452 120.188 23.1887 120.81 22.6742Z" fill="#8D9098"/>
<path d="M130.292 16.4229H131.546V28.295H130.292V16.4229Z" fill="#8D9098"/>
<path d="M142.299 17.5099H138.127V16.4248H147.726V17.5099H143.554V28.297H142.299V17.5099Z" fill="#8D9098"/>
<path d="M161.16 25.1237H154.546L153.12 28.295H151.814L157.241 16.4229H158.479L163.906 28.295H162.583L161.16 25.1237ZM160.702 24.1071L157.852 17.7302L155.003 24.1071H160.702Z" fill="#8D9098"/>
<path d="M170.455 16.4229H171.709V27.21H178.358V28.295H170.455V16.4229Z" fill="#8D9098"/>
<defs>
<linearGradient id="paint0_linear" x1="47.8382" y1="-15.2761" x2="59.103" y2="43.7516" gradientUnits="userSpaceOnUse">
<stop stop-color="#00FFFF"/>
<stop offset="1" stop-color="#662D91"/>
</linearGradient>
<linearGradient id="paint1_linear" x1="47.8382" y1="-15.2761" x2="59.103" y2="43.7516" gradientUnits="userSpaceOnUse">
<stop stop-color="#00FFFF"/>
<stop offset="1" stop-color="#662D91"/>
</linearGradient>
<linearGradient id="paint2_linear" x1="47.8382" y1="-15.2761" x2="59.103" y2="43.7516" gradientUnits="userSpaceOnUse">
<stop stop-color="#00FFFF"/>
<stop offset="1" stop-color="#662D91"/>
</linearGradient>
<linearGradient id="paint3_linear" x1="47.8382" y1="-15.2761" x2="59.103" y2="43.7516" gradientUnits="userSpaceOnUse">
<stop stop-color="#00FFFF"/>
<stop offset="1" stop-color="#662D91"/>
</linearGradient>
<linearGradient id="paint4_linear" x1="47.8382" y1="-15.2761" x2="59.103" y2="43.7516" gradientUnits="userSpaceOnUse">
<stop stop-color="#00FFFF"/>
<stop offset="1" stop-color="#662D91"/>
</linearGradient>
</defs>
</svg>
