<svg width="30" height="29" viewBox="0 0 30 29" fill="none" xmlns="http://www.w3.org/2000/svg">
<path fill-rule="evenodd" clip-rule="evenodd" d="M23.0274 20.5404H21.8155C21.1465 20.5404 20.6035 19.999 20.6035 19.332V13.2904C20.6035 12.6234 21.1465 12.082 21.8155 12.082H23.0274C24.3666 12.082 25.4513 13.1635 25.4513 14.4987V18.1237C25.4513 19.4589 24.3666 20.5404 23.0274 20.5404Z" stroke="#17A5E6" stroke-width="1.5" stroke-linecap="round" stroke-linejoin="round"/>
<path fill-rule="evenodd" clip-rule="evenodd" d="M7.27161 20.5404H6.05965C4.72044 20.5404 3.63574 19.4589 3.63574 18.1237V14.4987C3.63574 13.1635 4.72044 12.082 6.05965 12.082H7.27161C7.94061 12.082 8.48356 12.6234 8.48356 13.2904V19.332C8.48356 19.999 7.94061 20.5404 7.27161 20.5404Z" stroke="#17A5E6" stroke-width="1.5" stroke-linecap="round" stroke-linejoin="round"/>
<path d="M22.4214 12.0824V11.4782C22.4214 7.14027 18.8946 3.62402 14.5437 3.62402V3.62402C10.1928 3.62402 6.66602 7.14027 6.66602 11.4782V12.0824" stroke="#17A5E6" stroke-width="1.5" stroke-linecap="round" stroke-linejoin="round"/>
<path fill-rule="evenodd" clip-rule="evenodd" d="M15.3009 25.6761H13.7859C12.9497 25.6761 12.271 24.9994 12.271 24.1657V24.1657C12.271 23.3319 12.9497 22.6553 13.7859 22.6553H15.3009C16.1371 22.6553 16.8158 23.3319 16.8158 24.1657V24.1657C16.8158 24.9994 16.1371 25.6761 15.3009 25.6761Z" stroke="#17A5E6" stroke-width="1.5" stroke-linecap="round" stroke-linejoin="round"/>
<path d="M16.8164 24.165H19.3918C20.731 24.165 21.8157 23.0836 21.8157 21.7484V20.54" stroke="#17A5E6" stroke-width="1.5" stroke-linecap="round" stroke-linejoin="round"/>
</svg>
