<svg width="146" height="20" viewBox="0 0 146 20" fill="none" xmlns="http://www.w3.org/2000/svg">
<path fill-rule="evenodd" clip-rule="evenodd" d="M0.142578 1.12676V2.25352H0.756354C1.09393 2.25352 1.44721 2.32958 1.54142 2.42254C1.6706 2.55 1.7127 4.55817 1.7127 10.5966V18.6015L2.36559 18.8777C3.40744 19.3185 5.69069 19.7183 7.16489 19.7183C11.449 19.7183 13.54 17.6013 13.9127 12.8863C14.1431 9.97239 13.354 7.62972 11.6997 6.31606C10.1411 5.07859 6.99575 4.95197 5.41449 6.06296L4.99569 6.35718V3.17859V0H2.56914H0.142578V1.12676ZM135.322 5.23085C134.894 5.30085 134.203 5.51183 133.788 5.69944L133.032 6.0407V7.87859V9.71648L133.962 9.08859C135.041 8.35958 136.043 8.02775 137.162 8.02915C138.063 8.03014 138.326 8.17211 139.348 9.20817C140.012 9.88183 140.039 9.8938 140.741 9.82718C141.668 9.73944 143.196 8.9838 144.702 7.86887C145.35 7.38916 145.857 6.97366 145.828 6.94563C145.8 6.91746 145.422 6.98563 144.989 7.0969C143.689 7.43113 142.02 7.6369 141.38 7.54211C140.659 7.43549 139.621 6.81493 138.744 5.96648C137.836 5.08831 137.126 4.93563 135.322 5.23085ZM21.0311 5.36563C18.8805 5.72 17.1139 6.96169 16.3173 8.67887C15.294 10.8844 15.3218 14.5906 16.378 16.7587C17.4456 18.9508 20.0465 20.1683 22.731 19.7324C25.292 19.3166 27.0046 17.8916 27.8383 15.4824C28.2764 14.2168 28.398 11.1701 28.0628 9.85831C27.7352 8.5762 27.0647 7.28789 26.446 6.75183C25.7211 6.1238 24.3733 5.53352 23.2662 5.35944C22.2213 5.19493 22.0637 5.19535 21.0311 5.36563ZM34.386 5.35718C32.5237 5.63746 30.9453 6.77056 30.4763 8.16394C30.2927 8.70901 30.243 9.19521 30.2904 9.98211C30.4189 12.1194 31.2754 12.8996 34.4998 13.8162C36.2692 14.319 36.6955 14.5321 37.0211 15.0761C37.5193 15.908 37.1784 16.8727 36.258 17.2361C35.1168 17.6866 33.0368 17.4055 32.6828 16.7528C32.6066 16.6124 32.5443 16.1483 32.5443 15.7217V14.9459L31.5094 15.0199C30.9402 15.0606 30.3943 15.1183 30.2961 15.1482C30.1649 15.188 30.1177 15.7054 30.1177 17.1028V19.0032L30.8671 19.2234C32.9532 19.8366 36.242 19.8796 37.7117 19.3128C38.7251 18.922 39.8598 17.9335 40.1682 17.173C40.5386 16.2596 40.6068 15.0958 40.3426 14.1989C39.9284 12.793 38.7617 11.9417 36.3231 11.2666C34.8539 10.8597 34.253 10.5997 33.7932 10.1718C33.4691 9.87 33.4007 9.68662 33.4007 9.11775C33.4007 7.87831 34.4004 7.30916 36.1899 7.52986C36.6127 7.58197 37.1172 7.75042 37.3186 7.90676C37.6292 8.14775 37.6828 8.30211 37.6828 8.95394V9.71831L38.7177 9.7162C39.2869 9.71493 39.8351 9.66239 39.9358 9.59916C40.0717 9.51409 40.1087 9.06803 40.0786 7.87606L40.038 6.26761L38.682 5.82408C37.1813 5.33338 35.6505 5.1669 34.386 5.35718ZM46.481 5.36254C44.7792 5.61521 43.4008 6.5107 42.7596 7.78042C42.4566 8.38042 42.3932 8.70408 42.3932 9.65028C42.3932 12.0717 43.4227 13.0154 47.095 13.9606C48.6901 14.3711 49.316 14.8951 49.316 15.8194C49.316 16.539 49.0103 16.9704 48.2858 17.273C47.7425 17.4999 46.3929 17.5227 45.6447 17.3177C44.9138 17.1173 44.677 16.7279 44.677 15.7256V14.8944L44.231 14.9824C43.9856 15.0308 43.4396 15.0704 43.0177 15.0704H42.2505V17.031V18.9914L42.9285 19.2103C44.8389 19.8272 48.3714 19.881 49.8366 19.3156C52.4096 18.323 53.4201 15.3932 51.9467 13.1983C51.4506 12.4592 50.1366 11.7096 48.6928 11.342C46.27 10.7251 45.4621 10.1554 45.4621 9.06366C45.4621 8.52648 45.5328 8.36535 45.917 8.02662C46.4865 7.52437 47.4476 7.36099 48.531 7.58211C49.5257 7.78507 49.8156 8.11169 49.8156 9.02972V9.71831L50.8505 9.7162C51.4197 9.71493 51.9678 9.66239 52.0686 9.59916C52.2045 9.51423 52.2415 9.06887 52.2114 7.88014L52.1708 6.27592L51.4571 6.01394C49.7493 5.38732 47.9242 5.14831 46.481 5.36254ZM60.159 5.35817C56.2677 5.86014 54.2405 8.50887 54.2405 13.0915C54.2405 16.3272 55.2169 18.3492 57.2285 19.2801C57.9342 19.6068 58.1987 19.6479 59.5932 19.6479C61.0697 19.6479 61.2093 19.6228 61.934 19.2268C62.3578 18.9952 62.8716 18.599 63.0759 18.3465C63.28 18.0939 63.4953 17.8873 63.5542 17.8873C63.6132 17.8873 63.6613 18.2359 63.6613 18.662V19.4366H65.8024H67.9434V18.3099V17.1831L67.4082 17.181C66.3952 17.1769 66.4524 17.4893 66.3733 11.5246L66.3019 6.13747L65.2023 5.82676C64.1646 5.53338 61.9319 5.19127 61.3061 5.22958C61.1491 5.23916 60.6329 5.29704 60.159 5.35817ZM77.3328 5.35155C76.3483 5.52225 75.1934 6.08859 74.4488 6.76592L73.7957 7.35986V6.49676V5.6338H71.5119H69.2281V6.76056V7.88732H69.8431C71.0407 7.88732 71.0065 7.76549 71.0559 12.2068C71.0798 14.3628 71.0623 16.3256 71.0167 16.5689C70.9285 17.0397 70.5407 17.2758 69.7277 17.3535L69.2995 17.3944V18.3803V19.3662L72.5468 19.4041L75.7941 19.442V18.3125V17.1831H75.0804H74.3667V13.4079V9.63268L74.7756 8.99634C75.2548 8.25071 75.9659 7.86465 77.0233 7.77592C78.0145 7.69296 78.7092 8.02817 79.1176 8.78704C79.4092 9.32887 79.4326 9.59155 79.4801 12.8623C79.5081 14.7851 79.4947 16.5013 79.4502 16.6761C79.3568 17.0432 78.8213 17.3239 78.2139 17.3239H77.7924V18.383V19.442L81.0397 19.4041L84.287 19.3662V18.3099V17.2535L83.5376 17.211L82.7883 17.1683L82.7854 13.549C82.7838 11.5583 82.7196 9.49958 82.6425 8.97394C82.4845 7.89577 82.0113 6.8731 81.4098 6.31042C80.547 5.50296 78.8127 5.09507 77.3328 5.35155ZM90.7324 5.36113C89.6203 5.52775 87.8906 6.36648 87.1484 7.09873C85.9391 8.29211 85.3163 10.1685 85.321 12.6056C85.3293 16.9893 87.2072 19.4392 90.837 19.8015C93.4324 20.0607 96.0847 18.6554 97.1672 16.4473C97.8199 15.1159 97.9902 14.2304 97.9875 12.1831C97.9848 10.1166 97.6872 8.85873 96.9041 7.60296C95.8701 5.94479 93.2319 4.98648 90.7324 5.36113ZM120.353 5.35831C118.114 5.65563 116.464 6.67507 115.484 8.36578C114.286 10.4341 114.036 13.9176 114.907 16.4168C115.664 18.5868 117.351 19.7183 119.829 19.7183C121.196 19.7183 122.032 19.4123 122.966 18.5694L123.739 17.873L123.782 18.6196L123.826 19.3662L126.002 19.4051L128.179 19.4439V18.3135V17.1831H127.565C127.228 17.1831 126.875 17.107 126.78 17.0141C126.653 16.8886 126.609 15.4768 126.609 11.5324V6.21986L125.931 6.00056C124.078 5.40141 121.909 5.15169 120.353 5.35831ZM98.4895 6.67775V7.72169L99.0276 7.81141C99.3237 7.86085 99.6467 7.95042 99.7455 8.0107C99.9072 8.1093 101.23 11.6551 103.233 17.3592L103.962 19.4366H106.069H108.177L108.745 17.7113C109.057 16.7624 109.872 14.2746 110.555 12.1831C111.239 10.0915 111.893 8.27394 112.008 8.14408C112.123 8.01408 112.469 7.86592 112.776 7.81479L113.334 7.72169V6.67775V5.6338H110.48H107.625V6.76056V7.88732H108.267C108.664 7.88732 108.909 7.95056 108.909 8.05282C108.909 8.1438 108.418 9.80747 107.818 11.75C107.218 13.6924 106.629 15.6144 106.51 16.0211C106.391 16.4279 106.245 16.7606 106.185 16.7606C106.065 16.7606 106.085 16.8194 104.492 11.8121C103.86 9.82634 103.343 8.13085 103.343 8.04451C103.343 7.94789 103.645 7.88732 104.128 7.88732H104.913V6.76056V5.6338H101.701H98.4895V6.67775ZM8.82195 7.99423C9.89163 8.48014 10.4166 9.68916 10.5188 11.9014C10.6356 14.4289 10.1143 16.1052 8.94627 16.959C8.60612 17.2075 8.33863 17.2535 7.23341 17.2535C6.44435 17.2535 5.73908 17.1768 5.45959 17.0604L4.99569 16.8672V12.9514V9.03563L5.36796 8.59916C6.18399 7.64225 7.52859 7.40676 8.82195 7.99423ZM22.8282 7.74366C23.37 7.89704 24.0464 8.47 24.3401 9.02423C24.4455 9.22338 24.6411 9.91817 24.7746 10.5682C25.2053 12.6658 24.8593 15.3607 24.0185 16.459C23.3086 17.3859 21.8918 17.709 20.7683 17.1999C19.6839 16.7086 19.2086 15.7838 18.9584 13.6787C18.4617 9.50127 20.1093 6.97423 22.8282 7.74366ZM62.9357 7.88113C63.2441 8.04394 63.2455 8.06563 63.2037 11.9562L63.1617 15.8676L62.75 16.3999C61.7669 17.6711 59.7818 17.8232 58.5598 16.7208C57.7569 15.9965 57.3284 13.4841 57.6537 11.4085C57.9557 9.48211 58.8419 8.12423 60.0479 7.73972C60.5691 7.57352 62.5356 7.66986 62.9357 7.88113ZM93.0584 7.95408C94.1141 8.49282 94.6299 9.99465 94.6333 12.5408C94.637 15.188 94.0917 16.5906 92.8235 17.1963C92.0791 17.552 90.9326 17.5111 90.2347 17.1042C89.2151 16.51 88.6394 14.797 88.6423 12.3666C88.6453 9.72916 89.2844 8.33366 90.7324 7.80296C91.3794 7.56592 92.4315 7.63423 93.0584 7.95408ZM123.172 7.88113C123.48 8.04394 123.481 8.06718 123.44 11.8852L123.397 15.7255L123.017 16.2923C122.316 17.3369 120.608 17.7844 119.482 17.218C118.332 16.6392 117.757 15.2425 117.762 13.0338C117.767 10.1672 118.58 8.37563 120.134 7.80268C120.769 7.56845 122.673 7.61761 123.172 7.88113Z" fill="#6C757F"/>
<path d="M133.788 10.7316C134.203 10.544 134.894 10.333 135.322 10.263C137.126 9.96783 137.836 10.1205 138.744 10.9987C139.621 11.8471 140.659 12.4677 141.38 12.5743C142.02 12.6691 143.689 12.4633 144.989 12.1291C145.422 12.0178 145.8 11.9497 145.828 11.9778C145.857 12.0059 145.35 12.4213 144.702 12.9011C143.195 14.016 141.668 14.7716 140.741 14.8594C140.039 14.926 140.012 14.914 139.348 14.2404C138.326 13.2043 138.063 13.0623 137.162 13.0613C136.043 13.0599 135.041 13.3918 133.962 14.1208L133.032 14.7487V12.9108V11.0729L133.788 10.7316Z" fill="#6C757F"/>
<path d="M133.788 15.328C134.203 15.1404 134.894 14.9294 135.322 14.8594C137.126 14.5642 137.836 14.7168 138.744 15.595C139.621 16.4435 140.659 17.064 141.38 17.1706C142.02 17.2654 143.689 17.0597 144.989 16.7254C145.422 16.6142 145.8 16.546 145.828 16.5742C145.857 16.6022 145.35 17.0177 144.702 17.4974C143.195 18.6123 141.668 19.368 140.741 19.4557C140.039 19.5223 140.012 19.5104 139.348 18.8367C138.326 17.8006 138.063 17.6587 137.162 17.6577C136.043 17.6563 135.041 17.9881 133.962 18.7171L133.032 19.345V17.5071V15.6692L133.788 15.328Z" fill="#6C757F"/>
</svg>
